# xmcd
#
# Track frame offsets:
#	150
#	20399
#	40687
#	60053
#	83243
#	99803
#	115972
#	132412
#	158002
#	175403
#	190154
#
# Disc length: 2745 seconds
#
# Revision: 0
# Processed by: cddbd v1.5.1PL2 Copyright (c) Steve Scherf et al.
# Submitted via: dBpowerAMP V4.0
#
DISCID=7c0ab70b
DTITLE=Fulbert - Les anges à la sieste
DYEAR=1900
DGENRE=French
TTITLE0=Sur le capot
TTITLE1=A pied
TTITLE2=Satanée maquerelle
TTITLE3=Sur l'asphalte
TTITLE4=Doucement
TTITLE5=Les bovins
TTITLE6=La chanson de Cahors
TTITLE7=Worsds (Between the lines of age)
TTITLE8=Ici-bas
TTITLE9=Le vent
TTITLE10=La bêche
EXTD=
EXTT0=
EXTT1=
EXTT2=
EXTT3=
EXTT4=
EXTT5=
EXTT6=
EXTT7=
EXTT8=
EXTT9=
EXTT10=
PLAYORDER=
